<svg xmlns="http://www.w3.org/2000/svg" viewBox="0 0 24 24"><circle cx="12" cy="12" r="12" fill="#d94f76"/><g fill="#fff" transform="translate(2.4 2.4) scale(0.8)"><path d="M12 13.5c-2.6 0-5.5 2.2-5.5 4.6 0 1.4 1 2.4 2.5 2.4 1.1 0 1.9-.5 3-.5s1.9.5 3 .5c1.5 0 2.5-1 2.5-2.4 0-2.4-2.9-4.6-5.5-4.6zM7.2 7.8c-.9-1.6-2.5-2.3-3.6-1.7-1.1.6-1.3 2.4-.4 4 .9 1.6 2.5 2.3 3.6 1.7 1.1-.7 1.3-2.4.4-4zm9.6 0c-.9 1.6-.7 3.3.4 4 1.1.6 2.7-.1 3.6-1.7.9-1.6.7-3.4-.4-4-1.1-.6-2.7.1-3.6 1.7zM9.4 7.4c1.2.3 2.5-.7 2.9-2.2.4-1.6-.3-3.1-1.5-3.4-1.2-.3-2.5.7-2.9 2.2-.4 1.6.3 3.1 1.5 3.4zm5.2 0c1.2-.3 1.9-1.8 1.5-3.4-.4-1.5-1.7-2.5-2.9-2.2-1.2.3-1.9 1.8-1.5 3.4.4 1.5 1.7 2.5 2.9 2.2z"/></g></svg>
